<svg width="300" height="220" viewBox="0 0 300 220" fill="none" xmlns="http://www.w3.org/2000/svg">
<path d="M269.94 204.841H250.068V204.99H269.94V204.841Z" fill="#EBEBEB"/>
<path d="M198.732 206.463H193.518V206.612H198.732V206.463Z" fill="#EBEBEB"/>
<path d="M249.468 199.307H237.954V199.456H249.468V199.307Z" fill="#EBEBEB"/>
<path d="M57.3901 200.309H31.4761V200.458H57.3901V200.309Z" fill="#EBEBEB"/>
<path d="M66.5341 200.309H62.7361V200.458H66.5341V200.309Z" fill="#EBEBEB"/>
<path d="M135.09 202.825H78.8821V202.974H135.09V202.825Z" fill="#EBEBEB"/>
<path d="M142.2 168.648H26.352C25.4434 168.648 24.572 168.29 23.9295 167.651C23.287 167.012 22.926 166.146 22.926 165.243V3.37535C22.9339 2.47742 23.2984 1.61894 23.94 0.986786C24.5817 0.354628 25.4486 -3.4425e-05 26.352 2.5062e-09H142.2C143.109 2.50621e-09 143.98 0.358758 144.623 0.997351C145.265 1.63594 145.626 2.50206 145.626 3.40517V165.243C145.626 166.146 145.265 167.012 144.623 167.651C143.98 168.29 143.109 168.648 142.2 168.648ZM26.352 0.119271C25.4837 0.120847 24.6513 0.464403 24.0373 1.0747C23.4233 1.68499 23.0776 2.51227 23.076 3.37535V165.243C23.0776 166.106 23.4233 166.934 24.0373 167.544C24.6513 168.154 25.4837 168.498 26.352 168.499H142.2C143.068 168.498 143.901 168.154 144.515 167.544C145.129 166.934 145.474 166.106 145.476 165.243V3.37535C145.474 2.51227 145.129 1.68499 144.515 1.0747C143.901 0.464403 143.068 0.120847 142.2 0.119271H26.352Z" fill="#EBEBEB"/>
<path d="M271.986 168.648H156.126C155.218 168.647 154.347 168.287 153.705 167.649C153.063 167.011 152.702 166.146 152.7 165.243V3.37535C152.709 2.47791 153.074 1.62033 153.716 0.988509C154.357 0.356683 155.223 0.00151968 156.126 0H271.986C272.887 0.00310371 273.751 0.359152 274.39 0.990975C275.029 1.6228 275.392 2.47948 275.4 3.37535V165.243C275.4 166.144 275.041 167.008 274.401 167.647C273.761 168.285 272.892 168.645 271.986 168.648ZM156.126 0.119271C155.258 0.120847 154.425 0.464403 153.811 1.0747C153.197 1.68499 152.852 2.51227 152.85 3.37535V165.243C152.852 166.106 153.197 166.934 153.811 167.544C154.425 168.154 155.258 168.498 156.126 168.499H271.986C272.854 168.498 273.687 168.154 274.301 167.544C274.915 166.934 275.26 166.106 275.262 165.243V3.37535C275.26 2.51227 274.915 1.68499 274.301 1.0747C273.687 0.464403 272.854 0.120847 271.986 0.119271H156.126Z" fill="#EBEBEB"/>
<path d="M300 195.246H0V195.395H300V195.246Z" fill="#EBEBEB"/>
<path d="M145.62 158.135C122.73 153.471 100.734 130.875 84.318 143.578C65.25 158.331 48.054 158.952 48.054 158.952C87.534 158.952 83.736 134 110.31 148.539C123.564 155.785 137.34 158.027 145.62 158.677V158.135Z" fill="#EBEBEB"/>
<path d="M226.836 150.406C203.946 145.742 181.944 123.147 165.528 135.849C146.46 150.603 129.27 151.229 129.27 151.229C168.744 151.229 164.946 126.272 191.52 140.811C204.774 148.056 218.556 150.299 226.836 150.949V150.406Z" fill="#EBEBEB"/>
<path d="M223.356 138.258L233.94 144.914L232.8 136.958L245.154 143.912C238.356 134.406 232.002 121.286 226.842 109.031L226.578 107.212L234.792 111.834C229.992 105.125 225.528 95.7324 221.994 87.1449L224.484 88.7133L223.884 84.5746L230.31 88.1885C226.17 82.3979 222.342 74.0252 219.462 66.8212V66.7914L222.936 68.7474C218.208 62.1339 214.236 49.3004 214.236 49.3004C214.236 49.3004 210.264 62.1339 205.53 68.7474L209.01 66.7914V66.8391C206.124 74.0431 202.302 82.4158 198.156 88.2064L204.6 84.5746L204 88.7133L206.496 87.1449C202.956 95.7085 198.492 105.125 193.692 111.834L201.906 107.212L201.648 109.031C196.482 121.286 190.128 134.406 183.33 143.912L195.684 136.958L194.526 144.914L205.116 138.252L207.228 147.502L209.52 144.478L206.862 174.171C206.862 174.171 202.116 174.815 200.766 175.512C199.758 176.037 198.15 179.222 198.15 179.222C198.15 179.222 199.044 179.347 200.022 179.406H200.67H200.706C200.91 179.406 201.114 179.406 201.306 179.406H201.348C201.521 179.398 201.694 179.378 201.864 179.347H201.894C202.031 179.321 202.164 179.279 202.29 179.222C202.824 178.947 203.4 177.659 203.982 177.534C205.14 177.289 207.252 178.906 208.392 179.222L208.92 179.347C209.554 179.479 210.195 179.576 210.84 179.639C211.08 179.669 211.32 179.687 211.566 179.705C212.31 179.764 213.09 179.8 213.864 179.806C214.638 179.812 215.424 179.806 216.162 179.734C217.23 179.683 218.289 179.51 219.318 179.222C219.456 179.174 219.612 179.108 219.78 179.031C220.452 178.727 221.316 178.214 222.12 177.838C222.61 177.575 223.167 177.459 223.722 177.504C223.807 177.527 223.888 177.563 223.962 177.611C224.164 177.751 224.349 177.913 224.514 178.095C224.838 178.44 225.139 178.806 225.414 179.192H229.554C229.554 179.192 227.952 176.007 226.944 175.483C225.588 174.785 220.842 174.141 220.842 174.141L218.082 143.303L221.238 147.478L223.356 138.258Z" fill="#F5F5F5"/>
<path d="M67.092 149.434L77.226 155.809L76.134 148.193L87.96 154.849C81.456 145.748 75.36 133.189 70.428 121.453L70.176 119.712L78.042 124.137C73.446 117.714 69.174 108.697 65.784 100.497L68.184 102L67.584 98.0402L73.74 101.499C69.774 95.953 66.108 87.938 63.348 81.0383V80.9965L66.678 82.8691C62.148 76.5358 58.344 64.251 58.344 64.251C58.344 64.251 54.552 76.5358 50.028 82.8929L53.352 81.0204V81.0621C50.598 87.9619 46.932 95.9709 42.966 101.523L49.116 98.0641L48.546 101.976L50.946 100.473C47.562 108.673 43.284 117.69 38.694 124.113L46.554 119.688L46.308 121.429C41.364 133.165 35.28 145.725 28.77 154.825L40.578 148.193L39.486 155.809L49.626 149.434L51.654 158.29L53.844 155.397L51.3 183.819C51.3 183.819 46.758 184.416 45.462 185.114C44.496 185.609 42.96 188.656 42.96 188.656C42.96 188.656 43.812 188.781 44.76 188.835H45.36H45.396C45.594 188.835 45.786 188.835 45.966 188.835H46.008C46.188 188.835 46.356 188.805 46.506 188.781C46.6376 188.759 46.7651 188.716 46.884 188.656C47.394 188.394 47.946 187.165 48.51 187.046C49.614 186.813 51.636 188.358 52.71 188.656C52.8758 188.706 53.044 188.748 53.214 188.781C53.8228 188.906 54.4376 188.999 55.056 189.061L55.752 189.127C56.46 189.181 57.204 189.211 57.954 189.216C58.704 189.222 59.442 189.216 60.15 189.151C61.1657 189.099 62.1721 188.933 63.15 188.656C63.3018 188.608 63.4501 188.55 63.594 188.483C64.242 188.185 65.064 187.696 65.832 187.362C66.3032 187.113 66.8362 187.003 67.368 187.046C67.4502 187.069 67.5289 187.103 67.602 187.147C67.7931 187.282 67.97 187.436 68.13 187.606C68.4391 187.938 68.7276 188.289 68.994 188.656H72.954C72.954 188.656 71.418 185.609 70.452 185.114C69.156 184.44 64.614 183.819 64.614 183.819L61.974 154.3L64.974 158.29L67.092 149.434Z" fill="#F5F5F5"/>
<path d="M256.554 165.255L263.058 169.364L262.356 164.48L269.94 168.75C265.77 162.911 261.864 154.855 258.696 147.335L258.534 146.214L263.58 149.052C260.634 144.931 257.892 139.153 255.72 133.893L257.25 134.853L256.884 132.313L260.832 134.537C258.288 130.959 255.936 125.836 254.166 121.417V121.387L256.296 122.58C253.392 118.519 250.956 110.653 250.956 110.653C250.956 110.653 248.514 118.537 245.61 122.58L247.746 121.387V121.417C245.976 125.842 243.63 130.959 241.086 134.537L245.028 132.313L244.668 134.853L246.198 133.893C244.026 139.153 241.284 144.931 238.338 149.052L243.378 146.214L243.222 147.335C240.048 154.855 236.148 162.911 231.972 168.75L239.556 164.48L238.854 169.364L245.352 165.279L246.654 170.956L248.058 169.102L246.426 187.332C246.426 187.332 243.516 187.732 242.682 188.161C242.082 188.477 241.08 190.433 241.08 190.433C241.08 190.433 241.626 190.511 242.226 190.546H242.628H242.994H243.024C243.131 190.541 243.237 190.529 243.342 190.511C243.426 190.498 243.507 190.472 243.582 190.433C243.912 190.266 244.266 189.473 244.626 189.401C245.334 189.252 246.63 190.242 247.332 190.433C247.439 190.464 247.547 190.49 247.656 190.511C248.052 190.595 248.453 190.656 248.856 190.695L249.3 190.731C249.75 190.767 250.23 190.791 250.71 190.791C251.19 190.791 251.664 190.791 252.12 190.749C252.776 190.717 253.426 190.611 254.058 190.433C254.142 190.403 254.238 190.367 254.34 190.32C254.754 190.129 255.282 189.813 255.774 189.604C256.077 189.441 256.421 189.37 256.764 189.401C256.816 189.412 256.866 189.434 256.908 189.467C257.034 189.55 257.149 189.648 257.25 189.759C257.449 189.971 257.633 190.197 257.802 190.433H260.346C260.346 190.433 259.356 188.477 258.738 188.161C257.91 187.732 254.994 187.332 254.994 187.332L253.302 168.398L255.24 170.956L256.554 165.255Z" fill="#F5F5F5"/>
<path d="M128.4 70.125C124.17 58.9375 119.58 66.9822 119.58 66.9822C119.206 64.1487 118 61.4876 116.112 59.3322C114.224 57.1767 111.738 55.6226 108.966 54.8644C103.518 53.29 101.994 55.4607 101.712 57.7448C100.3 56.7636 98.7323 56.0257 97.074 55.5621C87.258 52.7235 90.168 65.4556 90.168 65.4556C90.168 65.4556 80.508 58.854 79.506 65.5212C78.504 72.1884 82.092 71.8067 84.78 72.3494C86.55 72.7013 91.98 72.4866 91.98 72.4866C93.847 73.4817 95.9149 74.0477 98.0312 74.1426C100.148 74.2376 102.258 73.8591 104.208 73.0352L104.922 72.7311C104.922 72.7311 105.732 72.8503 106.872 72.9756C109.931 73.7948 113.177 73.5722 116.094 72.3434L116.814 72.0393C116.814 72.0393 130.866 76.6849 128.4 70.125Z" fill="#F5F5F5"/>
<path d="M244.842 40.7905C239.532 26.7464 233.766 36.8426 233.766 36.8426C233.766 36.8426 232.8 25.2018 220.458 21.6416C213.6 19.6796 211.71 22.4169 211.35 25.2555C209.578 24.0244 207.61 23.0972 205.53 22.5123C193.206 18.9342 196.86 34.9343 196.86 34.9343C196.86 34.9343 184.728 26.645 183.474 35.0237C182.22 43.4025 186.72 42.9135 190.074 43.5933C192.294 44.0406 199.128 43.7663 199.128 43.7663C201.471 45.015 204.067 45.7254 206.723 45.8451C209.379 45.9648 212.028 45.4908 214.476 44.458L215.376 44.0764C215.376 44.0764 216.396 44.2255 217.824 44.3805C221.667 45.4099 225.747 45.1285 229.41 43.5814L230.31 43.2057C230.31 43.2057 247.962 49.0321 244.842 40.7905Z" fill="#F5F5F5"/>
<path d="M98.0219 53.6717C94.8659 45.3227 91.4219 51.328 91.4219 51.328C91.144 49.2191 90.2467 47.2384 88.8423 45.6336C87.4379 44.0288 85.5887 42.8711 83.5259 42.3052C79.4699 41.1125 78.3299 42.7644 78.1259 44.4521C77.0729 43.7224 75.9049 43.1721 74.6699 42.824C67.3559 40.707 69.5219 50.1949 69.5219 50.1949C69.5219 50.1949 62.3219 45.275 61.5779 50.2486C60.8339 55.2222 63.5039 54.93 65.5079 55.3355C66.8279 55.5979 70.9079 55.4369 70.9079 55.4369C72.2984 56.1782 73.8386 56.6 75.4149 56.6712C76.9912 56.7424 78.5635 56.4612 80.0159 55.8483L80.5499 55.6217C80.5499 55.6217 81.1499 55.7112 82.0079 55.8006C84.2864 56.4129 86.7057 56.2469 88.8779 55.3295L89.4119 55.1029C89.4119 55.1029 99.8699 58.5498 98.0219 53.6717Z" fill="#F0F0F0"/>
<path d="M197.736 71.1686C194.58 62.8197 191.136 68.8309 191.136 68.8309C190.858 66.7212 189.961 64.7396 188.557 63.1338C187.153 61.528 185.303 60.3692 183.24 59.8022C179.184 58.6095 178.044 60.2614 177.84 61.949C176.787 61.2193 175.619 60.6691 174.384 60.321C167.07 58.2099 169.236 67.6979 169.236 67.6979C169.236 67.6979 162.036 62.772 161.292 67.7456C160.548 72.7191 163.218 72.4329 165.222 72.8325C166.542 73.1008 170.622 72.9338 170.622 72.9338C172.013 73.6752 173.553 74.097 175.129 74.1682C176.705 74.2394 178.278 73.9582 179.73 73.3453L180.264 73.1187C180.264 73.1187 180.864 73.2082 181.716 73.2976C183.996 73.9131 186.418 73.7471 188.592 72.8265L189.126 72.5999C189.126 72.5999 199.584 76.0587 197.736 71.1686Z" fill="#F0F0F0"/>
<path d="M147.108 219.881C211.357 219.881 263.442 216.859 263.442 213.13C263.442 209.402 211.357 206.379 147.108 206.379C82.8584 206.379 30.7739 209.402 30.7739 213.13C30.7739 216.859 82.8584 219.881 147.108 219.881Z" fill="#F5F5F5"/>
<path d="M252.558 184.923C251.358 184.326 247.158 183.73 247.158 183.73L243.858 146.84H238.086L234.786 183.73C234.786 183.73 230.586 184.326 229.386 184.923C228.492 185.388 227.07 188.203 227.07 188.203C227.07 188.203 229.92 188.62 230.736 188.203C231.204 187.958 231.714 186.819 232.236 186.712C233.256 186.497 235.128 187.904 236.136 188.203C238.464 188.841 243.51 188.942 245.808 188.203C246.804 187.887 248.688 186.497 249.708 186.712C250.23 186.819 251.208 188.203 251.208 188.203H254.874C254.874 188.203 253.452 185.388 252.558 184.923Z" fill="#263238"/>
<path opacity="0.6" d="M252.558 184.923C251.358 184.326 247.158 183.73 247.158 183.73L243.858 146.84H238.086L234.786 183.73C234.786 183.73 230.586 184.326 229.386 184.923C228.492 185.388 227.07 188.203 227.07 188.203C227.07 188.203 229.92 188.62 230.736 188.203C231.204 187.958 231.714 186.819 232.236 186.712C233.256 186.497 235.128 187.904 236.136 188.203C238.464 188.841 243.51 188.942 245.808 188.203C246.804 187.887 248.688 186.497 249.708 186.712C250.23 186.819 251.208 188.203 251.208 188.203H254.874C254.874 188.203 253.452 185.388 252.558 184.923Z" fill="white"/>
<path opacity="0.1" d="M251.508 185.668C250.802 185.245 250.008 184.99 249.186 184.923C248.503 184.963 247.824 185.063 247.158 185.221V183.73L243.858 146.84H240.222L239.286 162.112L240.972 160.77L240.126 177.617H241.326C241.326 177.617 241.254 183.652 240.312 185.37C239.799 185.946 239.207 186.448 238.554 186.861C238.554 186.861 235.008 185.34 233.754 185.37C232.3 185.523 230.908 186.035 229.704 186.861C229.306 187.31 228.982 187.819 228.744 188.37C229.419 188.452 230.103 188.395 230.754 188.203C231.222 187.958 231.732 186.819 232.254 186.712C233.274 186.497 235.146 187.904 236.154 188.203C238.482 188.841 243.528 188.942 245.826 188.203C246.822 187.887 248.706 186.497 249.726 186.712C250.248 186.819 251.226 188.203 251.226 188.203H252.942C252.534 187.254 252 186.062 251.508 185.668Z" fill="black"/>
<path d="M268.686 156.942C253.806 136.129 241.308 95.7681 241.308 95.7681C241.308 95.7681 228.81 136.129 213.936 156.942L224.868 150.788L223.86 157.83L233.232 151.933L235.11 160.12L241.308 151.933L247.512 160.12L249.384 151.933L258.756 157.83L257.748 150.788L268.686 156.942Z" fill="#1A7E5A"/>
<path opacity="0.3" d="M268.686 156.942C253.806 136.129 241.308 95.7681 241.308 95.7681C241.308 95.7681 228.81 136.129 213.936 156.942L224.868 150.788L223.86 157.83L233.232 151.933L235.11 160.12L241.308 151.933L247.512 160.12L249.384 151.933L258.756 157.83L257.748 150.788L268.686 156.942Z" fill="white"/>
<path d="M259.512 128.538C249.618 114.702 241.308 87.8665 241.308 87.8665C241.308 87.8665 232.998 114.702 223.11 128.538L230.4 124.447L229.734 129.128L235.938 125.234L237.186 130.679L241.308 125.234L245.43 130.679L246.678 125.234L252.912 129.152L252.24 124.471L259.512 128.538Z" fill="#1A7E5A"/>
<path opacity="0.4" d="M259.512 128.538C249.618 114.702 241.308 87.8665 241.308 87.8665C241.308 87.8665 232.998 114.702 223.11 128.538L230.4 124.447L229.734 129.128L235.938 125.234L237.186 130.679L241.308 125.234L245.43 130.679L246.678 125.234L252.912 129.152L252.24 124.471L259.512 128.538Z" fill="white"/>
<path d="M255.546 107.606C247.812 96.7819 241.308 75.7903 241.308 75.7903C241.308 75.7903 234.81 96.7819 227.07 107.606L232.758 104.403L232.236 108.071L237.108 105L238.086 109.264L241.308 105L244.536 109.264L245.508 105L250.386 108.071L249.858 104.403L255.546 107.606Z" fill="#1A7E5A"/>
<path opacity="0.5" d="M255.546 107.606C247.812 96.7819 241.308 75.7903 241.308 75.7903C241.308 75.7903 234.81 96.7819 227.07 107.606L232.758 104.403L232.236 108.071L237.108 105L238.086 109.264L241.308 105L244.536 109.264L245.508 105L250.386 108.071L249.858 104.403L255.546 107.606Z" fill="white"/>
<path d="M249 90.3771C244.8 84.5209 241.296 73.1604 241.296 73.1604C241.296 73.1604 237.78 84.4911 233.592 90.3771L236.67 88.6477L236.4 90.6455L239.034 88.9876L239.562 91.2895L241.308 88.9876L243.054 91.2895L243.582 88.9876L246.222 90.6455L245.934 88.6656L249 90.3771Z" fill="#1A7E5A"/>
<path opacity="0.6" d="M249 90.3771C244.8 84.5209 241.296 73.1604 241.296 73.1604C241.296 73.1604 237.78 84.4911 233.592 90.3771L236.67 88.6477L236.4 90.6455L239.034 88.9876L239.562 91.2895L241.308 88.9876L243.054 91.2895L243.582 88.9876L246.222 90.6455L245.934 88.6656L249 90.3771Z" fill="white"/>
<path d="M59.3161 189.079C58.3741 188.596 55.0681 188.143 55.0681 188.143L52.4701 159.131H47.9281L45.3361 188.143C45.3361 188.143 42.0301 188.596 41.0881 189.079C40.3801 189.443 39.2881 191.662 39.2881 191.662C39.2881 191.662 41.5321 191.99 42.1741 191.662C42.5401 191.471 42.9421 190.576 43.3741 190.469C44.1781 190.302 45.6481 191.429 46.4401 191.662C48.2761 192.162 52.2421 192.258 54.0541 191.662C54.8341 191.411 56.3161 190.32 57.1201 190.469C57.5281 190.558 58.3201 191.662 58.3201 191.662H61.2001C61.2001 191.662 60.0001 189.443 59.3161 189.079Z" fill="#263238"/>
<path opacity="0.6" d="M59.3161 189.079C58.3741 188.596 55.0681 188.143 55.0681 188.143L52.4701 159.131H47.9281L45.3361 188.143C45.3361 188.143 42.0301 188.596 41.0881 189.079C40.3801 189.443 39.2881 191.662 39.2881 191.662C39.2881 191.662 41.5321 191.99 42.1741 191.662C42.5401 191.471 42.9421 190.576 43.3741 190.469C44.1781 190.302 45.6481 191.429 46.4401 191.662C48.2761 192.162 52.2421 192.258 54.0541 191.662C54.8341 191.411 56.3161 190.32 57.1201 190.469C57.5281 190.558 58.3201 191.662 58.3201 191.662H61.2001C61.2001 191.662 60.0001 189.443 59.3161 189.079Z" fill="white"/>
<path opacity="0.1" d="M58.4882 189.67C57.9418 189.337 57.3261 189.133 56.6882 189.073C56.1522 189.107 55.6202 189.187 55.0982 189.312V188.119L52.5002 159.107H49.6082L48.8702 171.153L50.2022 170.097L49.5362 183.348H50.4662C50.4662 183.348 50.4062 188.119 49.6682 189.443C49.2651 189.904 48.7985 190.305 48.2822 190.636C48.2822 190.636 45.4982 189.443 44.5082 189.443C43.3624 189.569 42.2669 189.979 41.3222 190.636C41.0107 190.993 40.7557 191.395 40.5662 191.828C41.0977 191.892 41.6366 191.847 42.1502 191.697C42.5162 191.506 42.9182 190.612 43.3502 190.505C44.1542 190.338 45.6242 191.465 46.4162 191.697C48.2522 192.198 52.2182 192.294 54.0302 191.697C54.8102 191.447 56.2922 190.356 57.0962 190.505C57.5042 190.594 58.2962 191.697 58.2962 191.697H59.6402C59.3786 190.96 58.9886 190.273 58.4882 189.67Z" fill="black"/>
<path d="M72.0001 167.074C60.2941 150.704 50.4661 118.954 50.4661 118.954C50.4661 118.954 40.6321 150.704 28.9321 167.074L37.5361 162.208L36.7441 167.748L44.1121 163.108L45.6001 169.573L50.4781 163.132L55.3561 169.573L56.8261 163.132L64.2001 167.772L63.3961 162.208L72.0001 167.074Z" fill="#1A7E5A"/>
<path opacity="0.3" d="M72.0001 167.074C60.2941 150.704 50.4661 118.954 50.4661 118.954C50.4661 118.954 40.6321 150.704 28.9321 167.074L37.5361 162.208L36.7441 167.748L44.1121 163.108L45.6001 169.573L50.4781 163.132L55.3561 169.573L56.8261 163.132L64.2001 167.772L63.3961 162.208L72.0001 167.074Z" fill="white"/>
<path d="M64.8 144.735C57 133.851 50.484 112.74 50.484 112.74C50.484 112.74 43.944 133.851 36.168 144.735L41.886 141.514L41.358 145.2L46.26 142.111L47.238 146.398L50.484 142.111L53.724 146.398L54.708 142.111L59.61 145.2L59.082 141.514L64.8 144.735Z" fill="#1A7E5A"/>
<path opacity="0.4" d="M64.8 144.735C57 133.851 50.484 112.74 50.484 112.74C50.484 112.74 43.944 133.851 36.168 144.735L41.886 141.514L41.358 145.2L46.26 142.111L47.238 146.398L50.484 142.111L53.724 146.398L54.708 142.111L59.61 145.2L59.082 141.514L64.8 144.735Z" fill="white"/>
<path d="M61.6622 128.269C55.5782 119.753 50.4662 103.223 50.4662 103.223C50.4662 103.223 45.3542 119.736 39.2642 128.269L43.7402 125.747L43.3262 128.633L47.1602 126.218L47.9282 129.569L50.4662 126.218L53.0042 129.569L53.7662 126.218L57.6002 128.633L57.1862 125.747L61.6622 128.269Z" fill="#1A7E5A"/>
<path opacity="0.5" d="M61.6622 128.269C55.5782 119.753 50.4662 103.223 50.4662 103.223C50.4662 103.223 45.3542 119.736 39.2642 128.269L43.7402 125.747L43.3262 128.633L47.1602 126.218L47.9282 129.569L50.4662 126.218L53.0042 129.569L53.7662 126.218L57.6002 128.633L57.1862 125.747L61.6622 128.269Z" fill="white"/>
<path d="M56.526 114.714C53.232 110.11 50.466 101.171 50.466 101.171C50.466 101.171 47.7 110.116 44.406 114.714L46.806 113.355L46.584 114.911L48.66 113.605L49.074 115.394L50.448 113.605L51.822 115.394L52.236 113.605L54.312 114.911L54.084 113.355L56.526 114.714Z" fill="#1A7E5A"/>
<path opacity="0.6" d="M56.526 114.714C53.232 110.11 50.466 101.171 50.466 101.171C50.466 101.171 47.7 110.116 44.406 114.714L46.806 113.355L46.584 114.911L48.66 113.605L49.074 115.394L50.448 113.605L51.822 115.394L52.236 113.605L54.312 114.911L54.084 113.355L56.526 114.714Z" fill="white"/>
<path d="M182.706 129.73C182.716 129.611 182.701 129.491 182.662 129.378C182.623 129.265 182.561 129.161 182.479 129.073C182.398 128.985 182.299 128.915 182.189 128.867C182.078 128.819 181.959 128.794 181.839 128.794C181.719 128.794 181.6 128.819 181.489 128.867C181.379 128.915 181.28 128.985 181.199 129.073C181.117 129.161 181.055 129.265 181.016 129.378C180.977 129.491 180.962 129.611 180.972 129.73C180.972 129.883 181.013 130.033 181.091 130.164C181.169 130.295 181.281 130.403 181.416 130.476V175.077H182.262V130.476C182.397 130.403 182.509 130.295 182.587 130.164C182.665 130.033 182.706 129.883 182.706 129.73Z" fill="#263238"/>
<path opacity="0.5" d="M182.706 129.73C182.716 129.611 182.701 129.491 182.662 129.378C182.623 129.265 182.561 129.161 182.479 129.073C182.398 128.985 182.299 128.915 182.189 128.867C182.078 128.819 181.959 128.794 181.839 128.794C181.719 128.794 181.6 128.819 181.489 128.867C181.379 128.915 181.28 128.985 181.199 129.073C181.117 129.161 181.055 129.265 181.016 129.378C180.977 129.491 180.962 129.611 180.972 129.73C180.972 129.883 181.013 130.033 181.091 130.164C181.169 130.295 181.281 130.403 181.416 130.476V175.077H182.262V130.476C182.397 130.403 182.509 130.295 182.587 130.164C182.665 130.033 182.706 129.883 182.706 129.73Z" fill="white"/>
<path d="M181.416 131.794H182.262C182.262 131.794 185.076 130.857 186.768 132.635C188.46 134.412 191.646 133.231 191.646 133.231C191.646 133.231 190.146 137.596 187.098 136.213C184.05 134.829 182.262 136.445 182.262 136.445H181.416V131.794Z" fill="#1A7E5A"/>
<path opacity="0.1" d="M186.348 135.879C186.603 135.96 186.854 136.055 187.098 136.165L187.236 136.225V132.986C187.068 132.873 186.911 132.743 186.768 132.599C186.682 132.511 186.592 132.427 186.498 132.348L186.348 135.879Z" fill="black"/>
<path d="M25.8 195.854C37.044 190.761 64.9141 179.502 91.3441 179.502C116.298 179.502 143.046 190.141 155.64 195.866L25.8 195.854Z" fill="#1A7E5A"/>
<path opacity="0.4" d="M25.8 195.854C37.044 190.761 64.9141 179.502 91.3441 179.502C116.298 179.502 143.046 190.141 155.64 195.866L25.8 195.854Z" fill="white"/>
<path opacity="0.4" d="M132.324 195.854H155.64C143.04 190.129 116.298 179.49 91.344 179.49C91.344 179.502 151.8 194.786 132.324 195.854Z" fill="white"/>
<path d="M86.9641 195.854C103.086 188.525 143.028 172.31 180.894 172.31C216.648 172.31 254.964 187.612 273.012 195.854H86.9641Z" fill="#1A7E5A"/>
<path opacity="0.6" d="M86.9641 195.854C103.086 188.525 143.028 172.31 180.894 172.31C216.648 172.31 254.964 187.612 273.012 195.854H86.9641Z" fill="white"/>
<path opacity="0.5" d="M239.604 195.854H273C254.952 187.612 216.63 172.31 180.882 172.31C180.894 172.31 276.306 191.536 239.604 195.854Z" fill="white"/>
<path d="M118.998 168.666L110.046 168.171C109.787 168.155 109.543 168.041 109.365 167.853C109.187 167.664 109.087 167.416 109.086 167.157V166.364C109.086 166.095 109.194 165.838 109.385 165.647C109.576 165.457 109.836 165.35 110.106 165.35H119.058C119.324 165.352 119.579 165.458 119.767 165.646C119.955 165.834 120.06 166.088 120.06 166.352V167.688C120.058 167.823 120.028 167.955 119.973 168.078C119.918 168.201 119.839 168.311 119.739 168.403C119.64 168.494 119.523 168.564 119.396 168.61C119.269 168.655 119.133 168.674 118.998 168.666Z" fill="#1A7E5A"/>
<path d="M120.594 153.554L120.713 153.564C120.788 153.57 120.857 153.606 120.905 153.662C120.953 153.719 120.977 153.793 120.97 153.867L119.972 165.561C119.966 165.635 119.93 165.704 119.873 165.752C119.816 165.799 119.742 165.823 119.667 165.817L119.548 165.807C119.402 165.794 119.261 165.754 119.131 165.687C119.002 165.621 118.887 165.529 118.793 165.419C118.699 165.308 118.628 165.18 118.584 165.042C118.539 164.904 118.523 164.758 118.535 164.614L119.393 154.566C119.405 154.421 119.445 154.28 119.512 154.15C119.578 154.021 119.67 153.906 119.782 153.812C119.893 153.718 120.022 153.646 120.162 153.602C120.301 153.558 120.448 153.541 120.594 153.554Z" fill="#1A7E5A"/>
<path d="M114.6 162.393L114.918 162.56L115.98 161.611L119.196 160.526C119.195 160.45 119.179 160.375 119.148 160.305C119.117 160.235 119.072 160.172 119.016 160.12C118.96 160.068 118.894 160.028 118.822 160.003C118.749 159.977 118.673 159.967 118.596 159.971C117.131 160.105 115.73 160.635 114.546 161.504C114.481 161.56 114.429 161.631 114.395 161.71C114.362 161.79 114.347 161.876 114.352 161.962C114.358 162.047 114.383 162.131 114.426 162.206C114.469 162.281 114.528 162.344 114.6 162.393Z" fill="#1A7E5A"/>
<path d="M91.4881 163.192C91.4881 160.49 92.6881 158.731 94.0861 156.632L98.8861 149.422C100.086 147.633 101.232 145.784 102.486 144.055C103.83 142.176 105.522 142.152 107.544 142.152H123.744C125.4 142.152 127.836 141.836 127.656 144.287C127.506 146.214 127.128 148.158 126.87 150.078C126.186 155.143 125.5 160.204 124.812 165.261C124.752 165.714 125.448 165.905 125.508 165.452C126.16 160.633 126.812 155.813 127.464 150.99C127.758 148.82 128.1 146.649 128.346 144.472C128.562 142.546 127.386 141.49 125.52 141.443C119.982 141.371 114.438 141.443 108.906 141.443C106.98 141.443 104.706 141.115 103.05 142.337C101.622 143.405 100.65 145.45 99.6961 146.893L93.8701 155.648C92.2561 158.033 90.7681 160.103 90.7681 163.168C90.7681 163.263 90.806 163.354 90.8735 163.421C90.941 163.488 91.0326 163.526 91.1281 163.526C91.2235 163.526 91.3151 163.488 91.3826 163.421C91.4501 163.354 91.4881 163.263 91.4881 163.168V163.192Z" fill="#263238"/>
<g opacity="0.3">
<path opacity="0.3" d="M91.4881 163.192C91.4881 160.49 92.6881 158.731 94.0861 156.632L98.8861 149.422C100.086 147.633 101.232 145.784 102.486 144.055C103.83 142.176 105.522 142.152 107.544 142.152H123.744C125.4 142.152 127.836 141.836 127.656 144.287C127.506 146.214 127.128 148.158 126.87 150.078C126.186 155.143 125.5 160.204 124.812 165.261C124.752 165.714 125.448 165.905 125.508 165.452C126.16 160.633 126.812 155.813 127.464 150.99C127.758 148.82 128.1 146.649 128.346 144.472C128.562 142.546 127.386 141.49 125.52 141.443C119.982 141.371 114.438 141.443 108.906 141.443C106.98 141.443 104.706 141.115 103.05 142.337C101.622 143.405 100.65 145.45 99.6961 146.893L93.8701 155.648C92.2561 158.033 90.7681 160.103 90.7681 163.168C90.7681 163.263 90.806 163.354 90.8735 163.421C90.941 163.488 91.0326 163.526 91.1281 163.526C91.2235 163.526 91.3151 163.488 91.3826 163.421C91.4501 163.354 91.4881 163.263 91.4881 163.168V163.192Z" fill="white"/>
</g>
<path d="M112.986 169.03C113.322 167.7 113.646 166.37 113.994 165.046C114.185 164.071 114.668 163.175 115.38 162.477C116.092 161.779 117 161.311 117.984 161.134C120.696 160.538 123.426 160.013 126.15 159.459C126.45 159.393 126.324 158.934 126.024 158.999C123.186 159.596 120.3 160.061 117.486 160.753C113.628 161.695 113.34 165.679 112.524 168.899C112.452 169.197 112.914 169.322 112.986 169.03Z" fill="#263238"/>
<g opacity="0.3">
<path opacity="0.3" d="M112.986 169.03C113.322 167.7 113.646 166.37 113.994 165.046C114.185 164.071 114.668 163.175 115.38 162.477C116.092 161.779 117 161.311 117.984 161.134C120.696 160.538 123.426 160.013 126.15 159.459C126.45 159.393 126.324 158.934 126.024 158.999C123.186 159.596 120.3 160.061 117.486 160.753C113.628 161.695 113.34 165.679 112.524 168.899C112.452 169.197 112.914 169.322 112.986 169.03Z" fill="white"/>
</g>
<path d="M135.246 167.742H134.7V161.242C134.7 160.778 134.515 160.334 134.185 160.006C133.855 159.678 133.408 159.494 132.942 159.494H125.928V158.958H132.942C133.552 158.958 134.137 159.198 134.569 159.626C135.001 160.054 135.244 160.635 135.246 161.242V167.742Z" fill="#263238"/>
<g opacity="0.3">
<path opacity="0.3" d="M135.246 167.742H134.7V161.242C134.7 160.778 134.515 160.334 134.185 160.006C133.855 159.678 133.408 159.494 132.942 159.494H125.928V158.958H132.942C133.552 158.958 134.137 159.198 134.569 159.626C135.001 160.054 135.244 160.635 135.246 161.242V167.742Z" fill="white"/>
</g>
<path d="M102.684 157.437L98.52 154.777C98.4843 154.755 98.4533 154.725 98.4291 154.691C98.4048 154.657 98.3877 154.618 98.3788 154.577C98.3698 154.535 98.3692 154.493 98.377 154.452C98.3848 154.41 98.4008 154.371 98.424 154.336C98.4707 154.265 98.5433 154.216 98.6264 154.198C98.7094 154.18 98.7962 154.195 98.868 154.24L103.026 156.906C103.062 156.928 103.092 156.957 103.117 156.991C103.141 157.025 103.158 157.063 103.167 157.104C103.176 157.144 103.176 157.186 103.169 157.227C103.161 157.268 103.145 157.307 103.122 157.341C103.1 157.377 103.071 157.408 103.037 157.432C103.003 157.456 102.964 157.473 102.923 157.481C102.883 157.49 102.84 157.491 102.799 157.483C102.758 157.476 102.719 157.46 102.684 157.437Z" fill="#263238"/>
<path d="M100.439 155.58L95.1045 163.82L95.7756 164.249L101.11 156.01L100.439 155.58Z" fill="#263238"/>
<path d="M109.008 174.892V170.354C109.013 169.959 109.14 169.574 109.373 169.254C109.607 168.934 109.934 168.693 110.31 168.565L121.074 164.909C121.267 164.841 121.469 164.805 121.674 164.802H132.288C132.799 164.802 133.288 165.004 133.65 165.362L134.85 166.555C135.211 166.915 135.413 167.401 135.414 167.909V173.872C135.412 174.154 135.299 174.424 135.097 174.623C134.896 174.822 134.624 174.934 134.34 174.934L109.008 174.892Z" fill="#1A7E5A"/>
<path opacity="0.6" d="M109.008 174.892V170.354C109.013 169.959 109.14 169.574 109.373 169.254C109.607 168.934 109.934 168.693 110.31 168.565L121.074 164.909C121.267 164.841 121.469 164.805 121.674 164.802H132.288C132.799 164.802 133.288 165.004 133.65 165.362L134.85 166.555C135.211 166.915 135.413 167.401 135.414 167.909V173.872C135.412 174.154 135.299 174.424 135.097 174.623C134.896 174.822 134.624 174.934 134.34 174.934L109.008 174.892Z" fill="white"/>
<path d="M100.464 174.892L97.38 164.981C97.2275 164.5 96.9365 164.074 96.543 163.756C96.1494 163.438 95.6707 163.242 95.166 163.192L89.55 162.595C89.2095 162.558 88.865 162.589 88.5364 162.685C88.2078 162.781 87.9018 162.941 87.636 163.156C85.962 164.528 82.728 168.135 83.868 174.904L100.464 174.892Z" fill="#1A7E5A"/>
<path opacity="0.6" d="M100.464 174.892L97.38 164.981C97.2275 164.5 96.9365 164.074 96.543 163.756C96.1494 163.438 95.6707 163.242 95.166 163.192L89.55 162.595C89.2095 162.558 88.865 162.589 88.5364 162.685C88.2078 162.781 87.9018 162.941 87.636 163.156C85.962 164.528 82.728 168.135 83.868 174.904L100.464 174.892Z" fill="white"/>
<path d="M127.536 141.777H104.064C103.997 141.771 103.932 141.746 103.88 141.704C103.827 141.661 103.788 141.604 103.769 141.54C103.749 141.475 103.75 141.406 103.771 141.342C103.791 141.278 103.831 141.222 103.884 141.18L104.346 140.888C104.883 140.545 105.508 140.36 106.146 140.357H125.496C126.325 140.357 127.125 140.663 127.74 141.216C127.785 141.26 127.816 141.316 127.83 141.377C127.844 141.439 127.84 141.502 127.819 141.561C127.797 141.62 127.759 141.672 127.709 141.71C127.659 141.748 127.599 141.771 127.536 141.777Z" fill="#1A7E5A"/>
<path opacity="0.6" d="M127.536 141.777H104.064C103.997 141.771 103.932 141.746 103.88 141.704C103.827 141.661 103.788 141.604 103.769 141.54C103.749 141.475 103.75 141.406 103.771 141.342C103.791 141.278 103.831 141.222 103.884 141.18L104.346 140.888C104.883 140.545 105.508 140.36 106.146 140.357H125.496C126.325 140.357 127.125 140.663 127.74 141.216C127.785 141.26 127.816 141.316 127.83 141.377C127.844 141.439 127.84 141.502 127.819 141.561C127.797 141.62 127.759 141.672 127.709 141.71C127.659 141.748 127.599 141.771 127.536 141.777Z" fill="white"/>
<path d="M133.374 174.141H83.7661C83.3817 174.141 83.0701 174.45 83.0701 174.833V174.958C83.0701 175.34 83.3817 175.65 83.7661 175.65H133.374C133.758 175.65 134.07 175.34 134.07 174.958V174.833C134.07 174.45 133.758 174.141 133.374 174.141Z" fill="#263238"/>
<path opacity="0.3" d="M133.374 174.141H83.7661C83.3817 174.141 83.0701 174.45 83.0701 174.833V174.958C83.0701 175.34 83.3817 175.65 83.7661 175.65H133.374C133.758 175.65 134.07 175.34 134.07 174.958V174.833C134.07 174.45 133.758 174.141 133.374 174.141Z" fill="white"/>
<path d="M97.062 174.343L96.396 172.387L94.8 170.449L91.74 169.197H88.866L86.124 170.891L84.288 174.01L83.988 175.649H97.242L97.062 174.343Z" fill="#1A7E5A"/>
<path d="M94.3488 179.328C96.392 177.297 96.392 174.005 94.3488 171.974C92.3055 169.943 88.9928 169.943 86.9496 171.974C84.9064 174.005 84.9064 177.297 86.9496 179.328C88.9928 181.359 92.3055 181.359 94.3488 179.328Z" fill="#263238"/>
<path d="M84.6001 175.65C84.5746 174.842 84.7125 174.038 85.0057 173.285C85.2989 172.531 85.7414 171.844 86.3069 171.264C86.8724 170.684 87.5495 170.223 88.2978 169.908C89.0461 169.593 89.8505 169.431 90.6631 169.431C91.4758 169.431 92.2802 169.593 93.0285 169.908C93.7768 170.223 94.4538 170.684 95.0194 171.264C95.5849 171.844 96.0274 172.531 96.3206 173.285C96.6138 174.038 96.7517 174.842 96.7261 175.65C96.7261 176.246 97.7041 176.246 97.6801 175.65C97.6801 173.799 96.9405 172.024 95.624 170.716C94.3075 169.407 92.522 168.672 90.6601 168.672C88.7983 168.672 87.0128 169.407 85.6962 170.716C84.3797 172.024 83.6401 173.799 83.6401 175.65C83.6401 176.246 84.5821 176.246 84.6001 175.65Z" fill="#1A7E5A"/>
<g opacity="0.4">
<path opacity="0.4" d="M84.6001 175.65C84.5746 174.842 84.7125 174.038 85.0057 173.285C85.2989 172.531 85.7414 171.844 86.3069 171.264C86.8724 170.684 87.5495 170.223 88.2978 169.908C89.0461 169.593 89.8505 169.431 90.6631 169.431C91.4758 169.431 92.2802 169.593 93.0285 169.908C93.7768 170.223 94.4538 170.684 95.0194 171.264C95.5849 171.844 96.0274 172.531 96.3206 173.285C96.6138 174.038 96.7517 174.842 96.7261 175.65C96.7261 176.246 97.7041 176.246 97.6801 175.65C97.6801 173.799 96.9405 172.024 95.624 170.716C94.3075 169.407 92.522 168.672 90.6601 168.672C88.7983 168.672 87.0128 169.407 85.6962 170.716C84.3797 172.024 83.6401 173.799 83.6401 175.65C83.6401 176.246 84.5821 176.246 84.6001 175.65Z" fill="white"/>
</g>
<path opacity="0.5" d="M94.38 175.649C94.38 176.383 94.1611 177.1 93.7511 177.71C93.341 178.32 92.7581 178.796 92.0762 179.076C91.3943 179.357 90.6439 179.431 89.9199 179.288C89.196 179.144 88.531 178.791 88.0091 178.272C87.4872 177.754 87.1317 177.093 86.9877 176.373C86.8437 175.654 86.9176 174.908 87.2001 174.23C87.4826 173.552 87.9609 172.973 88.5746 172.565C89.1884 172.158 89.9099 171.94 90.648 171.94C91.6378 171.94 92.5871 172.331 93.2869 173.027C93.9868 173.722 94.38 174.666 94.38 175.649Z" fill="white"/>
<path d="M91.962 175.65C91.962 175.908 91.8849 176.16 91.7405 176.375C91.5962 176.59 91.3909 176.757 91.1508 176.856C90.9107 176.955 90.6465 176.981 90.3916 176.93C90.1367 176.88 89.9026 176.756 89.7188 176.573C89.5351 176.39 89.4099 176.158 89.3592 175.904C89.3085 175.651 89.3346 175.388 89.434 175.15C89.5335 174.911 89.7019 174.707 89.918 174.564C90.134 174.42 90.3881 174.343 90.648 174.343C90.9965 174.343 91.3307 174.481 91.5771 174.726C91.8235 174.971 91.962 175.303 91.962 175.65Z" fill="#1A7E5A"/>
<path d="M121.98 175.65C121.98 174.052 122.618 172.52 123.755 171.39C124.891 170.261 126.433 169.626 128.04 169.626C129.647 169.626 131.189 170.261 132.325 171.39C133.462 172.52 134.1 174.052 134.1 175.65C134.1 176.246 135.078 176.246 135.06 175.65C135.06 173.799 134.32 172.024 133.004 170.716C131.687 169.407 129.902 168.672 128.04 168.672C126.178 168.672 124.393 169.407 123.076 170.716C121.76 172.024 121.02 173.799 121.02 175.65C121.02 176.246 121.956 176.246 121.98 175.65Z" fill="#1A7E5A"/>
<path d="M134.484 174.343L133.824 172.387L132.228 170.449L129.168 169.197H126.294L123.552 170.891L121.716 174.01L121.416 175.649H134.664L134.484 174.343Z" fill="#1A7E5A"/>
<g opacity="0.4">
<path opacity="0.4" d="M121.98 175.65C121.98 174.052 122.618 172.52 123.755 171.39C124.891 170.261 126.433 169.626 128.04 169.626C129.647 169.626 131.189 170.261 132.325 171.39C133.462 172.52 134.1 174.052 134.1 175.65C134.1 176.246 135.078 176.246 135.06 175.65C135.06 173.799 134.32 172.024 133.004 170.716C131.687 169.407 129.902 168.672 128.04 168.672C126.178 168.672 124.393 169.407 123.076 170.716C121.76 172.024 121.02 173.799 121.02 175.65C121.02 176.246 121.956 176.246 121.98 175.65Z" fill="white"/>
</g>
<path d="M131.739 179.324C133.782 177.293 133.782 174.001 131.739 171.97C129.696 169.939 126.383 169.939 124.34 171.97C122.296 174.001 122.296 177.293 124.34 179.324C126.383 181.355 129.696 181.355 131.739 179.324Z" fill="#263238"/>
<path opacity="0.5" d="M131.772 175.649C131.772 176.383 131.553 177.1 131.143 177.71C130.733 178.32 130.15 178.796 129.468 179.076C128.786 179.357 128.036 179.431 127.312 179.288C126.588 179.144 125.923 178.791 125.401 178.272C124.879 177.754 124.524 177.093 124.38 176.373C124.236 175.654 124.31 174.908 124.592 174.23C124.875 173.552 125.353 172.973 125.967 172.565C126.58 172.158 127.302 171.94 128.04 171.94C129.029 171.942 129.978 172.333 130.677 173.028C131.377 173.724 131.771 174.666 131.772 175.649Z" fill="white"/>
<path d="M129.354 175.65C129.354 175.908 129.277 176.16 129.133 176.375C128.988 176.59 128.783 176.757 128.543 176.856C128.303 176.955 128.039 176.981 127.784 176.93C127.529 176.88 127.295 176.756 127.111 176.573C126.927 176.39 126.802 176.158 126.751 175.904C126.701 175.651 126.727 175.388 126.826 175.15C126.926 174.911 127.094 174.707 127.31 174.564C127.526 174.42 127.78 174.343 128.04 174.343C128.389 174.343 128.723 174.481 128.969 174.726C129.216 174.971 129.354 175.303 129.354 175.65Z" fill="#1A7E5A"/>
<path d="M46.0559 210.083L65.4059 174.302L62.2919 210.309C62.4137 210.412 62.5075 210.543 62.5647 210.691C62.6219 210.839 62.6407 210.999 62.6193 211.156C62.5979 211.313 62.537 211.462 62.4422 211.589C62.3475 211.717 62.2219 211.818 62.0772 211.885C61.9324 211.951 61.7732 211.98 61.6141 211.969C61.4551 211.958 61.3014 211.907 61.1673 211.822C61.0332 211.736 60.923 211.618 60.8469 211.479C60.7708 211.34 60.7312 211.184 60.7319 211.025C60.7337 210.862 60.779 210.701 60.8633 210.561C60.9477 210.421 61.0679 210.305 61.2119 210.226L63.8759 179.412L47.0159 210.608C47.0825 210.737 47.1194 210.88 47.1239 211.025C47.1272 211.208 47.077 211.389 46.9792 211.544C46.8814 211.7 46.7404 211.824 46.5731 211.902C46.4058 211.979 46.2195 212.007 46.0368 211.981C45.8541 211.955 45.6827 211.878 45.5436 211.757C45.4044 211.637 45.3034 211.479 45.2527 211.302C45.2021 211.126 45.204 210.939 45.2582 210.763C45.3124 210.588 45.4166 210.432 45.5582 210.315C45.6998 210.197 45.8727 210.123 46.0559 210.101V210.083Z" fill="#263238"/>
<path opacity="0.3" d="M46.0559 210.083L65.4059 174.302L62.2919 210.309C62.4137 210.412 62.5075 210.543 62.5647 210.691C62.6219 210.839 62.6407 210.999 62.6193 211.156C62.5979 211.313 62.537 211.462 62.4422 211.589C62.3475 211.717 62.2219 211.818 62.0772 211.885C61.9324 211.951 61.7732 211.98 61.6141 211.969C61.4551 211.958 61.3014 211.907 61.1673 211.822C61.0332 211.736 60.923 211.618 60.8469 211.479C60.7708 211.34 60.7312 211.184 60.7319 211.025C60.7337 210.862 60.779 210.701 60.8633 210.561C60.9477 210.421 61.0679 210.305 61.2119 210.226L63.8759 179.412L47.0159 210.608C47.0825 210.737 47.1194 210.88 47.1239 211.025C47.1272 211.208 47.077 211.389 46.9792 211.544C46.8814 211.7 46.7404 211.824 46.5731 211.902C46.4058 211.979 46.2195 212.007 46.0368 211.981C45.8541 211.955 45.6827 211.878 45.5436 211.757C45.4044 211.637 45.3034 211.479 45.2527 211.302C45.2021 211.126 45.204 210.939 45.2582 210.763C45.3124 210.588 45.4166 210.432 45.5582 210.315C45.6998 210.197 45.8727 210.123 46.0559 210.101V210.083Z" fill="white"/>
<path d="M64.4277 172.012C64.4277 172.012 64.2417 176.228 64.6437 177.558C66.9897 185.31 78.8817 202.605 84.0117 209.886C84.6511 210.784 85.6099 211.406 86.6938 211.628C87.7778 211.849 88.9059 211.653 89.8497 211.079L96.0417 207.346C96.989 206.777 97.6834 205.872 97.9842 204.813C98.285 203.754 98.1697 202.622 97.6617 201.644C93.5577 193.767 83.6277 175.286 77.7777 169.62C76.7757 168.654 72.9297 166.871 72.9297 166.871L64.4277 172.012Z" fill="#263238"/>
<path d="M87.078 181.929L82.878 182.698C82.6328 182.746 82.3975 182.835 82.1819 182.961C81.9504 183.1 81.7488 183.284 81.5887 183.501C81.4287 183.718 81.3133 183.964 81.2492 184.226C81.1851 184.487 81.1735 184.759 81.2152 185.025C81.2568 185.291 81.3509 185.546 81.492 185.776L89.76 199.331C90.0223 199.761 90.3675 200.137 90.776 200.435C91.1844 200.733 91.6479 200.947 92.1401 201.067C92.6322 201.187 93.1433 201.209 93.6439 201.132C94.1446 201.055 94.6251 200.881 95.0579 200.619L95.412 200.404C96.2871 199.877 96.9159 199.027 97.1601 198.039C97.4043 197.052 97.2438 196.008 96.714 195.138L89.2379 182.883C89.0189 182.524 88.6946 182.24 88.3084 182.07C87.9223 181.899 87.4929 181.85 87.078 181.929Z" fill="#1A7E5A"/>
<g opacity="0.5">
<path opacity="0.5" d="M88.4579 184.273C87.8939 183.539 86.9459 183.921 86.2079 184.058C85.6164 184.12 85.0306 184.227 84.4559 184.38C82.7099 184.976 84.4559 187.004 85.0559 187.928C85.1307 188.05 85.1538 188.196 85.12 188.335C85.0863 188.474 84.9985 188.594 84.8759 188.668C84.7534 188.742 84.6062 188.765 84.4666 188.732C84.3271 188.698 84.2067 188.611 84.1319 188.489C83.2559 187.058 81.2999 184.47 83.8439 183.444C84.765 183.166 85.7117 182.98 86.6699 182.889C87.7859 182.686 88.6739 182.746 89.4059 183.718C89.8259 184.267 88.8959 184.821 88.4819 184.273H88.4579Z" fill="white"/>
</g>
<path d="M82.5598 192.085L84.7258 192.616L84.9958 188.489L84.2398 188.304L82.5598 192.085Z" fill="#263238"/>
<path opacity="0.3" d="M82.5598 192.085L84.7258 192.616L84.9958 188.489L84.2398 188.304L82.5598 192.085Z" fill="white"/>
<path d="M66.5998 182.979L69.2338 179.609C69.3886 179.414 69.5776 179.248 69.7918 179.12C70.023 178.98 70.2797 178.887 70.5472 178.845C70.8148 178.804 71.0879 178.815 71.351 178.879C71.6141 178.943 71.862 179.057 72.0804 179.216C72.2988 179.376 72.4835 179.576 72.6238 179.806L87.7018 204.549C88.8058 206.338 87.4738 207.483 85.6558 208.58L85.2958 208.801C83.4958 209.898 81.8518 210.548 80.7478 208.735L66.4498 185.298C66.2341 184.943 66.1329 184.53 66.1597 184.115C66.1865 183.701 66.3401 183.304 66.5998 182.979Z" fill="#1A7E5A"/>
<g opacity="0.5">
<path opacity="0.5" d="M68.0158 185.263C67.6138 184.428 68.3998 183.772 68.8618 183.181C69.1902 182.688 69.5552 182.219 69.9538 181.78C71.3038 180.528 72.2938 183.008 72.8578 183.933C72.9342 184.05 73.0532 184.132 73.1898 184.164C73.3264 184.195 73.4698 184.172 73.5898 184.1C73.7098 184.028 73.7969 183.912 73.8327 183.778C73.8685 183.643 73.8503 183.5 73.7818 183.378C72.9118 181.947 71.5078 179.019 69.4198 180.79C68.7455 181.473 68.1424 182.222 67.6198 183.026C66.9238 183.909 66.5698 184.726 67.0918 185.817C67.3918 186.443 68.2918 185.883 68.0218 185.263H68.0158Z" fill="white"/>
</g>
<path d="M73.7038 187.893L71.5378 187.368L73.2178 183.581L73.9738 183.766L73.7038 187.893Z" fill="#263238"/>
<path opacity="0.3" d="M73.7038 187.893L71.5378 187.368L73.2178 183.581L73.9738 183.766L73.7038 187.893Z" fill="white"/>
<path d="M75.4318 202.438L73.7578 202.032L75.0538 199.104L75.6418 199.247L75.4318 202.438Z" fill="#263238"/>
<path opacity="0.3" d="M75.4318 202.438L73.7578 202.032L75.0538 199.104L75.6418 199.247L75.4318 202.438Z" fill="white"/>
<g opacity="0.5">
<path opacity="0.5" d="M80.742 195.788C79.218 196.945 77.69 198.098 76.158 199.247C75.606 199.665 75.048 198.74 75.6 198.329C77.124 197.172 78.652 196.019 80.184 194.87C80.736 194.446 81.294 195.371 80.742 195.788Z" fill="white"/>
</g>
<path d="M73.2498 178.625L73.9219 178.22L58.5418 153.008L57.8697 153.413L73.2498 178.625Z" fill="#263238"/>
<path d="M54.3179 152.07C57.0239 150.436 58.3379 152.207 58.9979 153.209C60.3959 155.326 64.2779 161.862 64.2779 161.862L63.1439 162.542L58.6139 155.123C55.7159 157.288 52.5659 158.278 51.4139 156.381C50.2619 154.485 51.5999 153.722 54.3179 152.07Z" fill="#263238"/>
<path opacity="0.4" d="M54.3179 152.07C57.0239 150.436 58.3379 152.207 58.9979 153.209C60.3959 155.326 64.2779 161.862 64.2779 161.862L63.1439 162.542L58.6139 155.123C55.7159 157.288 52.5659 158.278 51.4139 156.381C50.2619 154.485 51.5999 153.722 54.3179 152.07Z" fill="white"/>
<path d="M62.2954 153.797L61.6233 154.202L77.0033 179.413L77.6754 179.008L62.2954 153.797Z" fill="#263238"/>
<path d="M62.7598 150.066C60.0538 151.7 61.0258 153.674 61.6138 154.718C62.8558 156.924 66.8938 163.371 66.8938 163.371L68.0278 162.685L63.4978 155.266C66.7678 153.71 69.1078 151.39 67.9498 149.499C66.7918 147.609 65.4658 148.438 62.7598 150.066Z" fill="#263238"/>
<path opacity="0.4" d="M62.7598 150.066C60.0538 151.7 61.0258 153.674 61.6138 154.718C62.8558 156.924 66.8938 163.371 66.8938 163.371L68.0278 162.685L63.4978 155.266C66.7678 153.71 69.1078 151.39 67.9498 149.499C66.7918 147.609 65.4658 148.438 62.7598 150.066Z" fill="white"/>
<path d="M60.5639 162.196L70.5899 178.631L70.0439 178.959L60.0359 162.548L60.5639 162.196Z" fill="#263238"/>
<path d="M52.0319 160.091L53.9639 158.928C55.0379 158.284 57.1079 158.653 58.2059 158.928C58.4284 158.982 58.6378 159.079 58.8222 159.215C59.0065 159.35 59.1621 159.52 59.2799 159.715C60.5459 161.796 62.3819 164.861 62.3819 164.861L61.4639 165.41L58.5839 160.687C57.5071 160.97 56.4649 161.37 55.4759 161.88L53.7539 162.917C53.5024 163.069 53.2007 163.115 52.9149 163.046C52.6292 162.977 52.3828 162.797 52.2299 162.548L51.6299 161.611C51.5547 161.486 51.5054 161.346 51.4849 161.201C51.4644 161.056 51.4731 160.909 51.5106 160.767C51.548 160.626 51.6133 160.493 51.7028 160.377C51.7923 160.261 51.9042 160.163 52.0319 160.091Z" fill="#263238"/>
<path opacity="0.4" d="M52.0319 160.091L53.9639 158.928C55.0379 158.284 57.1079 158.653 58.2059 158.928C58.4284 158.982 58.6378 159.079 58.8222 159.215C59.0065 159.35 59.1621 159.52 59.2799 159.715C60.5459 161.796 62.3819 164.861 62.3819 164.861L61.4639 165.41L58.5839 160.687C57.5071 160.97 56.4649 161.37 55.4759 161.88L53.7539 162.917C53.5024 163.069 53.2007 163.115 52.9149 163.046C52.6292 162.977 52.3828 162.797 52.2299 162.548L51.6299 161.611C51.5547 161.486 51.5054 161.346 51.4849 161.201C51.4644 161.056 51.4731 160.909 51.5106 160.767C51.548 160.626 51.6133 160.493 51.7028 160.377C51.7923 160.261 51.9042 160.163 52.0319 160.091Z" fill="white"/>
<g opacity="0.3">
<path opacity="0.3" d="M57.45 159.822L54.174 160.15C53.892 160.18 53.886 159.745 54.174 159.715L57.45 159.387C57.732 159.387 57.738 159.798 57.45 159.822Z" fill="white"/>
</g>
<g opacity="0.3">
<path opacity="0.3" d="M55.8 160.83L52.518 161.158C52.236 161.188 52.23 160.753 52.518 160.723L55.8 160.419C56.082 160.419 56.088 160.83 55.8 160.854V160.83Z" fill="white"/>
</g>
<g opacity="0.3">
<path opacity="0.3" d="M54.1678 161.802L52.9678 161.921C52.6918 161.951 52.6858 161.516 52.9678 161.486L54.1678 161.367C54.4498 161.367 54.4558 161.772 54.1678 161.802Z" fill="white"/>
</g>
<path d="M64.638 173.146L73.8371 167.602C74.3046 167.321 74.4538 166.716 74.1703 166.251L72.5744 163.635C72.291 163.17 71.6821 163.022 71.2146 163.304L62.0155 168.848C61.548 169.129 61.3988 169.734 61.6823 170.199L63.2781 172.815C63.5616 173.28 64.1704 173.428 64.638 173.146Z" fill="#1A7E5A"/>
<g opacity="0.5">
<path opacity="0.5" d="M63.1739 172.638L62.7659 171.964L73.6559 165.404L74.0639 166.078C74.0858 166.109 74.1021 166.143 74.1119 166.179L63.2459 172.739L63.1739 172.638Z" fill="white"/>
<path opacity="0.5" d="M62.1358 170.926L61.7938 170.372C61.7518 170.299 61.7157 170.223 61.6858 170.145L72.5338 163.585C72.5885 163.647 72.6387 163.713 72.6838 163.782L73.0198 164.343L62.1358 170.926Z" fill="white"/>
</g>
<path d="M227.478 173.204C226.972 173.699 226.331 174.035 225.634 174.168C224.937 174.302 224.216 174.228 223.562 173.956C222.907 173.683 222.348 173.224 221.955 172.637C221.562 172.05 221.352 171.36 221.352 170.655C221.352 169.95 221.562 169.26 221.955 168.673C222.348 168.086 222.907 167.627 223.562 167.355C224.216 167.082 224.937 167.008 225.634 167.142C226.331 167.275 226.972 167.611 227.478 168.106C227.818 168.439 228.088 168.835 228.273 169.273C228.457 169.711 228.552 170.181 228.552 170.655C228.552 171.13 228.457 171.599 228.273 172.037C228.088 172.475 227.818 172.872 227.478 173.204Z" fill="#263238"/>
<path opacity="0.7" d="M227.478 173.204C226.972 173.699 226.331 174.035 225.634 174.168C224.937 174.302 224.216 174.228 223.562 173.956C222.907 173.683 222.348 173.224 221.955 172.637C221.562 172.05 221.352 171.36 221.352 170.655C221.352 169.95 221.562 169.26 221.955 168.673C222.348 168.086 222.907 167.627 223.562 167.355C224.216 167.082 224.937 167.008 225.634 167.142C226.331 167.275 226.972 167.611 227.478 168.106C227.818 168.439 228.088 168.835 228.273 169.273C228.457 169.711 228.552 170.181 228.552 170.655C228.552 171.13 228.457 171.599 228.273 172.037C228.088 172.475 227.818 172.872 227.478 173.204Z" fill="white"/>
<path opacity="0.1" d="M228.492 171.225C228.159 171.921 227.623 172.502 226.955 172.893C226.287 173.285 225.516 173.468 224.742 173.421C223.968 173.373 223.226 173.097 222.611 172.627C221.996 172.157 221.537 171.515 221.292 170.783C221.233 171.732 221.556 172.666 222.189 173.378C222.823 174.09 223.715 174.524 224.67 174.582C225.625 174.641 226.564 174.32 227.281 173.69C227.997 173.06 228.433 172.174 228.492 171.225Z" fill="black"/>
<g opacity="0.2">
<path opacity="0.2" d="M224.838 173.36C224.906 173.292 224.997 173.255 225.093 173.255C225.189 173.255 225.28 173.292 225.348 173.36C225.416 173.427 225.454 173.518 225.454 173.613C225.454 173.708 225.416 173.799 225.348 173.866C225.28 173.932 225.188 173.969 225.093 173.969C224.998 173.969 224.906 173.932 224.838 173.866C224.804 173.834 224.776 173.794 224.758 173.751C224.739 173.707 224.729 173.66 224.729 173.613C224.729 173.566 224.739 173.519 224.758 173.475C224.776 173.432 224.804 173.392 224.838 173.36Z" fill="black"/>
<path opacity="0.2" d="M223.8 172.346C223.869 172.279 223.962 172.242 224.058 172.242C224.154 172.242 224.247 172.279 224.316 172.346C224.382 172.414 224.419 172.504 224.419 172.599C224.419 172.694 224.382 172.785 224.316 172.853C224.282 172.887 224.242 172.914 224.198 172.933C224.154 172.951 224.106 172.961 224.058 172.961C224.01 172.961 223.962 172.951 223.918 172.933C223.874 172.914 223.834 172.887 223.8 172.853C223.734 172.785 223.697 172.694 223.697 172.599C223.697 172.504 223.734 172.414 223.8 172.346Z" fill="black"/>
<path opacity="0.2" d="M222.792 171.326C222.86 171.259 222.951 171.221 223.047 171.221C223.143 171.221 223.234 171.259 223.302 171.326C223.37 171.393 223.408 171.484 223.408 171.579C223.408 171.674 223.37 171.766 223.302 171.833C223.234 171.899 223.142 171.936 223.047 171.936C222.952 171.936 222.86 171.899 222.792 171.833C222.758 171.8 222.73 171.761 222.712 171.717C222.693 171.674 222.684 171.627 222.684 171.579C222.684 171.532 222.693 171.485 222.712 171.442C222.73 171.398 222.758 171.359 222.792 171.326Z" fill="black"/>
<path opacity="0.2" d="M221.766 170.306C221.835 170.24 221.928 170.203 222.024 170.203C222.12 170.203 222.213 170.24 222.282 170.306C222.348 170.374 222.385 170.465 222.385 170.56C222.385 170.654 222.348 170.745 222.282 170.813C222.248 170.847 222.208 170.875 222.164 170.893C222.12 170.912 222.072 170.921 222.024 170.921C221.976 170.921 221.928 170.912 221.884 170.893C221.84 170.875 221.8 170.847 221.766 170.813C221.7 170.745 221.663 170.654 221.663 170.56C221.663 170.465 221.7 170.374 221.766 170.306Z" fill="black"/>
<path opacity="0.2" d="M226.368 172.847C226.419 172.796 226.484 172.761 226.556 172.746C226.627 172.732 226.7 172.739 226.767 172.767C226.834 172.794 226.892 172.841 226.932 172.901C226.972 172.961 226.994 173.031 226.994 173.103C226.994 173.175 226.972 173.246 226.932 173.305C226.892 173.365 226.834 173.412 226.767 173.439C226.7 173.467 226.627 173.474 226.556 173.46C226.484 173.445 226.419 173.411 226.368 173.36C226.301 173.291 226.264 173.199 226.264 173.103C226.264 173.007 226.301 172.916 226.368 172.847Z" fill="black"/>
<path opacity="0.2" d="M225.348 171.833C225.398 171.783 225.463 171.749 225.532 171.735C225.602 171.722 225.674 171.729 225.74 171.756C225.806 171.783 225.862 171.829 225.902 171.888C225.941 171.946 225.962 172.016 225.962 172.086C225.962 172.157 225.941 172.226 225.902 172.285C225.862 172.344 225.806 172.39 225.74 172.417C225.674 172.444 225.602 172.451 225.532 172.437C225.463 172.424 225.398 172.39 225.348 172.34C225.314 172.307 225.286 172.268 225.268 172.224C225.249 172.18 225.24 172.134 225.24 172.086C225.24 172.039 225.249 171.992 225.268 171.949C225.286 171.905 225.314 171.866 225.348 171.833Z" fill="black"/>
<path opacity="0.2" d="M224.58 171.427C224.779 171.427 224.94 171.267 224.94 171.069C224.94 170.872 224.779 170.712 224.58 170.712C224.381 170.712 224.22 170.872 224.22 171.069C224.22 171.267 224.381 171.427 224.58 171.427Z" fill="black"/>
<path opacity="0.2" d="M223.302 169.799C223.353 169.749 223.417 169.715 223.487 169.702C223.556 169.688 223.629 169.695 223.694 169.722C223.76 169.749 223.816 169.795 223.856 169.854C223.895 169.913 223.916 169.982 223.916 170.053C223.916 170.123 223.895 170.193 223.856 170.251C223.816 170.31 223.76 170.356 223.694 170.383C223.629 170.41 223.556 170.417 223.487 170.404C223.417 170.39 223.353 170.356 223.302 170.306C223.236 170.238 223.199 170.147 223.199 170.053C223.199 169.958 223.236 169.867 223.302 169.799Z" fill="black"/>
<path opacity="0.2" d="M222.282 168.768C222.315 168.733 222.355 168.706 222.398 168.688C222.442 168.669 222.489 168.66 222.537 168.66C222.585 168.66 222.632 168.669 222.676 168.688C222.719 168.706 222.759 168.733 222.792 168.768C222.86 168.835 222.898 168.926 222.898 169.021C222.898 169.116 222.86 169.207 222.792 169.274C222.724 169.342 222.633 169.379 222.537 169.379C222.441 169.379 222.35 169.342 222.282 169.274C222.248 169.242 222.22 169.202 222.202 169.159C222.183 169.115 222.174 169.068 222.174 169.021C222.174 168.974 222.183 168.927 222.202 168.883C222.22 168.84 222.248 168.8 222.282 168.768Z" fill="black"/>
<path opacity="0.2" d="M226.884 171.326C226.917 171.292 226.957 171.265 227.001 171.246C227.044 171.228 227.091 171.218 227.139 171.218C227.187 171.218 227.234 171.228 227.278 171.246C227.321 171.265 227.361 171.292 227.394 171.326C227.428 171.359 227.454 171.399 227.472 171.442C227.49 171.486 227.5 171.532 227.5 171.579C227.5 171.626 227.49 171.673 227.472 171.717C227.454 171.76 227.428 171.8 227.394 171.833C227.361 171.866 227.321 171.893 227.277 171.911C227.233 171.929 227.186 171.938 227.139 171.938C227.092 171.938 227.045 171.929 227.001 171.911C226.957 171.893 226.918 171.866 226.884 171.833C226.85 171.8 226.823 171.761 226.804 171.717C226.785 171.674 226.776 171.627 226.776 171.579C226.776 171.532 226.785 171.485 226.804 171.442C226.823 171.398 226.85 171.359 226.884 171.326Z" fill="black"/>
<path opacity="0.2" d="M225.858 170.306C225.926 170.24 226.018 170.203 226.113 170.203C226.208 170.203 226.3 170.24 226.368 170.306C226.402 170.339 226.428 170.379 226.446 170.422C226.464 170.466 226.474 170.513 226.474 170.56C226.474 170.607 226.464 170.653 226.446 170.697C226.428 170.74 226.402 170.78 226.368 170.813C226.335 170.846 226.295 170.873 226.251 170.891C226.207 170.909 226.16 170.918 226.113 170.918C226.066 170.918 226.019 170.909 225.975 170.891C225.931 170.873 225.892 170.846 225.858 170.813C225.792 170.745 225.755 170.654 225.755 170.56C225.755 170.465 225.792 170.374 225.858 170.306Z" fill="black"/>
<path opacity="0.2" d="M224.838 169.292C224.888 169.242 224.952 169.208 225.022 169.195C225.092 169.181 225.164 169.188 225.23 169.215C225.296 169.242 225.352 169.288 225.391 169.347C225.431 169.406 225.452 169.475 225.452 169.546C225.452 169.617 225.431 169.686 225.391 169.744C225.352 169.803 225.296 169.849 225.23 169.876C225.164 169.903 225.092 169.911 225.022 169.897C224.952 169.883 224.888 169.849 224.838 169.799C224.804 169.766 224.776 169.727 224.758 169.684C224.739 169.64 224.729 169.593 224.729 169.546C224.729 169.498 224.739 169.452 224.758 169.408C224.776 169.365 224.804 169.325 224.838 169.292Z" fill="black"/>
<path opacity="0.2" d="M223.8 168.273C223.851 168.222 223.916 168.187 223.987 168.172C224.058 168.158 224.132 168.165 224.199 168.193C224.266 168.22 224.323 168.267 224.364 168.327C224.404 168.387 224.426 168.457 224.426 168.529C224.426 168.601 224.404 168.672 224.364 168.731C224.323 168.791 224.266 168.838 224.199 168.865C224.132 168.893 224.058 168.9 223.987 168.886C223.916 168.871 223.851 168.837 223.8 168.785C223.733 168.717 223.696 168.625 223.696 168.529C223.696 168.433 223.733 168.342 223.8 168.273Z" fill="black"/>
<path opacity="0.2" d="M227.4 169.799C227.45 169.749 227.515 169.715 227.584 169.702C227.654 169.688 227.726 169.695 227.792 169.722C227.858 169.749 227.914 169.795 227.953 169.854C227.993 169.913 228.014 169.982 228.014 170.053C228.014 170.123 227.993 170.193 227.953 170.251C227.914 170.31 227.858 170.356 227.792 170.383C227.726 170.41 227.654 170.417 227.584 170.404C227.515 170.39 227.45 170.356 227.4 170.306C227.366 170.273 227.338 170.234 227.32 170.19C227.301 170.147 227.292 170.1 227.292 170.053C227.292 170.005 227.301 169.959 227.32 169.915C227.338 169.871 227.366 169.832 227.4 169.799Z" fill="black"/>
<path opacity="0.2" d="M226.368 168.768C226.402 168.733 226.442 168.706 226.486 168.687C226.53 168.669 226.578 168.659 226.626 168.659C226.674 168.659 226.722 168.669 226.766 168.687C226.81 168.706 226.851 168.733 226.884 168.768C226.95 168.835 226.988 168.926 226.988 169.021C226.988 169.116 226.95 169.207 226.884 169.274C226.815 169.341 226.722 169.378 226.626 169.378C226.53 169.378 226.437 169.341 226.368 169.274C226.302 169.207 226.265 169.116 226.265 169.021C226.265 168.926 226.302 168.835 226.368 168.768Z" fill="black"/>
<path opacity="0.2" d="M225.348 167.766C225.398 167.716 225.463 167.682 225.532 167.668C225.602 167.654 225.674 167.662 225.74 167.689C225.806 167.716 225.862 167.762 225.902 167.82C225.941 167.879 225.962 167.948 225.962 168.019C225.962 168.09 225.941 168.159 225.902 168.218C225.862 168.277 225.806 168.322 225.74 168.35C225.674 168.377 225.602 168.384 225.532 168.37C225.463 168.356 225.398 168.323 225.348 168.273C225.314 168.24 225.286 168.2 225.268 168.157C225.249 168.113 225.24 168.066 225.24 168.019C225.24 167.972 225.249 167.925 225.268 167.881C225.286 167.838 225.314 167.799 225.348 167.766Z" fill="black"/>
</g>
<path d="M210.966 204.549L205.458 199.068L205.362 199.158C206.256 200.78 205.71 203.189 203.934 204.96L200.334 208.538C200.181 208.691 200.094 208.898 200.094 209.114C200.094 209.33 200.181 209.537 200.334 209.689C200.488 209.842 200.696 209.928 200.913 209.928C201.13 209.928 201.339 209.842 201.492 209.689L205.092 206.111C206.844 204.37 209.232 203.821 210.858 204.656L210.966 204.549Z" fill="#1A7E5A"/>
<path d="M184.128 198.8C183.738 198.8 183.342 198.8 182.928 198.8C182.832 198.812 182.744 198.858 182.68 198.93C182.616 199.002 182.581 199.094 182.581 199.191C182.581 199.287 182.616 199.379 182.68 199.451C182.744 199.523 182.832 199.569 182.928 199.581C183.318 199.581 183.714 199.581 184.128 199.581C184.224 199.569 184.312 199.523 184.376 199.451C184.44 199.379 184.475 199.287 184.475 199.191C184.475 199.094 184.44 199.002 184.376 198.93C184.312 198.858 184.224 198.812 184.128 198.8Z" fill="#1A7E5A"/>
<path d="M214.23 185.221C206.798 193.133 196.629 197.958 185.766 198.728C185.262 198.764 185.262 199.545 185.766 199.51C196.833 198.742 207.199 193.842 214.782 185.793C215.13 185.43 214.578 184.875 214.23 185.239V185.221Z" fill="#1A7E5A"/>
<path d="M158.322 88.8564L162.774 91.9157C162.774 91.9157 179.982 93.7942 180.774 94.7663C181.566 95.7383 183.582 97.0801 183.624 98.1953C183.624 98.8752 182.598 100.02 182.046 100.432C181.284 100.992 179.358 101.857 178.446 101.624C177.846 101.463 177.246 100.277 176.868 99.7816C176.49 99.2866 175.446 97.3485 175.446 97.3485C175.446 97.3485 161.22 97.7063 159.012 96.2631C157.343 95.1132 155.752 93.8562 154.248 92.5002L158.322 88.8564Z" fill="#7F3E3B"/>
<path opacity="0.2" d="M183.654 98.1834C183.612 97.0682 181.632 95.7204 180.804 94.7544C180.594 94.5039 179.142 94.2892 177.114 94.1103L168.9 96.609C173.448 96.3466 175.5 97.3067 175.5 97.3067C175.5 97.3067 176.514 99.1674 176.922 99.7399C177.33 100.312 177.912 101.422 178.5 101.583C179.406 101.839 181.332 100.986 182.1 100.39C182.628 100.008 183.678 98.8632 183.654 98.1834Z" fill="black"/>
<path d="M147.642 84.9384C149.148 83.6682 152.622 82.2608 156.672 85.3439C157.761 86.1575 158.809 87.0253 159.81 87.944C160.286 88.3901 160.578 88.9962 160.629 89.6444C160.68 90.2925 160.486 90.9364 160.086 91.4506L158.238 93.836C157.812 94.3902 157.182 94.7537 156.487 94.8465C155.792 94.9394 155.088 94.7539 154.53 94.3309C151.266 91.8382 144.54 87.5504 147.642 84.9384Z" fill="#1A7E5A"/>
<path d="M159.6 89.0473L162.792 91.2061C162.792 91.2061 160.644 93.1919 158.142 95.8755L155.34 93.4901L159.6 89.0473Z" fill="#1A7E5A"/>
<g opacity="0.5">
<path opacity="0.5" d="M147.642 84.9384C149.148 83.6682 152.622 82.2608 156.672 85.3439C157.761 86.1575 158.809 87.0253 159.81 87.944C160.286 88.3901 160.578 88.9962 160.629 89.6444C160.68 90.2925 160.486 90.9364 160.086 91.4506L158.238 93.836C157.812 94.3902 157.182 94.7537 156.487 94.8465C155.792 94.9394 155.088 94.7539 154.53 94.3309C151.266 91.8382 144.54 87.5504 147.642 84.9384Z" fill="white"/>
<path opacity="0.5" d="M159.6 89.0473L162.792 91.206C162.792 91.206 160.644 93.1919 158.142 95.8755L155.34 93.4901L159.6 89.0473Z" fill="white"/>
</g>
<path d="M159 193.653L158.172 209.457H162.15L165.306 194.995L159 193.653Z" fill="#7F3E3B"/>
<path d="M165.822 120.725C165.822 120.725 173.022 146.172 171.822 162.667C170.622 179.162 164.022 203.618 164.022 203.618L157.872 202.825C157.872 202.825 158.634 181.506 160.362 170.097C160.962 166.299 162.162 164.891 162.426 162.667C162.672 160.675 162.144 159.685 161.52 155.666C160.386 148.42 158.118 137.775 154.272 135.235C152.148 133.821 149.118 135.765 149.868 126.057L165.822 120.725Z" fill="#263238"/>
<path opacity="0.5" d="M158.724 130.464L157.422 133.147L156.396 137.662C158.982 141.92 160.596 149.869 161.52 155.666C161.634 156.399 161.742 157.025 161.85 157.58C162.979 148.847 163.074 140.012 162.132 131.257L158.724 130.464Z" fill="black"/>
<path d="M157.398 203.493L164.25 204.495L165.306 202.718L156.936 201.412L157.398 203.493Z" fill="#263238"/>
<path opacity="0.3" d="M157.398 203.493L164.25 204.495L165.306 202.718L156.936 201.412L157.398 203.493Z" fill="white"/>
<path d="M163.032 206.934L158.022 207.113C157.916 207.115 157.814 207.154 157.733 207.222C157.652 207.291 157.597 207.385 157.578 207.489L156.684 212.212C156.645 212.411 156.686 212.617 156.798 212.787C156.91 212.956 157.085 213.075 157.284 213.118H157.452C159.54 213.011 161.394 212.838 163.992 212.755C167.064 212.653 166.296 213.047 169.908 212.975C172.08 212.933 172.398 210.465 171.474 210.375C167.232 209.987 165.972 208.747 164.274 207.298C163.916 207.034 163.476 206.905 163.032 206.934Z" fill="#1A7E5A"/>
<path opacity="0.5" d="M163.032 206.934L158.022 207.113C157.916 207.115 157.814 207.154 157.733 207.222C157.652 207.291 157.597 207.385 157.578 207.489L156.684 212.212C156.645 212.411 156.686 212.617 156.798 212.787C156.91 212.956 157.085 213.075 157.284 213.118H157.452C159.54 213.011 161.394 212.838 163.992 212.755C167.064 212.653 166.296 213.047 169.908 212.975C172.08 212.933 172.398 210.465 171.474 210.375C167.232 209.987 165.972 208.747 164.274 207.298C163.916 207.034 163.476 206.905 163.032 206.934Z" fill="white"/>
<path d="M126.972 195.293L118.572 203.273L116.322 200.118L124.05 190.129L126.972 195.293Z" fill="#7F3E3B"/>
<path d="M162.426 122.699C162.426 122.699 162.024 159.292 155.226 168.434C148.428 177.576 124.422 198.651 124.422 198.651L120.426 194.274C120.426 194.274 131.136 178.661 139.134 169.942C142.134 166.651 144.906 164.838 146.022 163.263C147.27 161.516 147 159.47 147.3 154.712C147.678 148.748 147.948 141.282 147.222 137.823C146.622 135.032 144.822 132.653 144.822 126.689L162.426 122.699Z" fill="#263238"/>
<path d="M119.622 194.25L124.272 199.36L126.222 198.651L120.6 192.353L119.622 194.25Z" fill="#263238"/>
<path opacity="0.3" d="M119.622 194.25L124.272 199.36L126.222 198.651L120.6 192.353L119.622 194.25Z" fill="white"/>
<path d="M120.366 201.913L118.2 197.392C118.156 197.297 118.08 197.219 117.985 197.172C117.89 197.126 117.781 197.113 117.678 197.136L112.962 198.186C112.862 198.206 112.767 198.246 112.683 198.303C112.599 198.36 112.527 198.433 112.471 198.518C112.416 198.603 112.377 198.698 112.358 198.797C112.34 198.897 112.341 198.999 112.362 199.098C112.374 199.152 112.392 199.204 112.416 199.253C113.334 201.12 114.216 202.748 115.332 205.085C116.634 207.852 115.974 207.304 117.462 210.572C118.362 212.546 120.768 211.86 120.462 210.977C119.148 206.952 119.796 205.312 120.462 203.225C120.59 202.79 120.555 202.324 120.366 201.913Z" fill="#1A7E5A"/>
<path opacity="0.5" d="M120.366 201.913L118.2 197.392C118.156 197.297 118.08 197.219 117.985 197.172C117.89 197.126 117.781 197.113 117.678 197.136L112.962 198.186C112.862 198.206 112.767 198.246 112.683 198.303C112.599 198.36 112.527 198.433 112.471 198.518C112.416 198.603 112.377 198.698 112.358 198.797C112.34 198.897 112.341 198.999 112.362 199.098C112.374 199.152 112.392 199.204 112.416 199.253C113.334 201.12 114.216 202.748 115.332 205.085C116.634 207.852 115.974 207.304 117.462 210.572C118.362 212.546 120.768 211.86 120.462 210.977C119.148 206.952 119.796 205.312 120.462 203.225C120.59 202.79 120.555 202.324 120.366 201.913Z" fill="white"/>
<path d="M135 99.6564C135.6 107.606 139.998 110.587 144.6 130.07C144.6 130.07 154.8 130.667 167.802 123.51C167.802 123.51 164.898 114.977 162.588 105.87C160.188 96.4301 158.304 86.3697 153.198 84.5448C145.422 81.7658 134.544 93.5736 135 99.6564Z" fill="#1A7E5A"/>
<path d="M232.668 70.3994C232.668 70.3994 229.566 60.4641 235.17 60.2614C240.774 60.0586 238.566 68.5149 234.168 71.1985L171.27 105.584L169.77 103.3L232.668 70.3994Z" fill="#263238"/>
<path opacity="0.5" d="M232.668 70.3994C232.668 70.3994 229.566 60.4641 235.17 60.2614C240.774 60.0586 238.566 68.5149 234.168 71.1985L171.27 105.584L169.77 103.3L232.668 70.3994Z" fill="white"/>
<path opacity="0.3" d="M237.96 61.466C237.438 60.6848 236.538 60.2137 235.17 60.2733C229.566 60.4761 232.668 70.4113 232.668 70.4113C232.668 70.4113 231.45 58.5856 237.96 61.466Z" fill="black"/>
<path opacity="0.1" d="M150.552 107.606C154.733 108.21 158.968 108.364 163.182 108.065C162.99 107.337 162.798 106.604 162.582 105.87C162.276 104.648 161.982 103.419 161.676 102.197L144.6 99.6564H138.702L136.944 101.917C136.944 101.917 138.222 108.238 150.552 107.606Z" fill="black"/>
<path d="M139.086 89.1844L138.576 91.3969C138.576 91.3969 143.088 94.1699 146.844 91.3969V89.1844L148.896 89.6198C148.896 89.6198 150.96 83.8113 147.288 84.1274L139.086 89.1844Z" fill="#1A7E5A"/>
<path opacity="0.5" d="M139.086 89.1844L138.576 91.3969C138.576 91.3969 143.088 94.1699 146.844 91.3969V89.1844L148.896 89.6198C148.896 89.6198 150.96 83.8113 147.288 84.1274L139.086 89.1844Z" fill="white"/>
<path opacity="0.1" d="M146.844 85.0279L144.252 87.2224L140.814 88.3734L140.538 88.2899L139.458 88.9578C139.902 89.7092 140.868 90.5799 142.968 90.5799C147.09 90.5799 148.2 86.0118 146.844 85.0279Z" fill="black"/>
<path d="M132.936 83.2686C135.516 87.0376 136.824 88.7849 140.01 89.6019C144.81 90.8304 148.566 86.7275 147.174 82.2548C145.92 78.2295 141.918 72.7132 137.148 73.4885C135.493 73.7495 134.009 74.653 133.024 76.0004C132.038 77.3478 131.631 79.029 131.892 80.6745C132.043 81.6051 132.4 82.491 132.936 83.2686Z" fill="#7F3E3B"/>
<path d="M134.964 78.5574C135.545 80.0506 136.032 81.5782 136.422 83.1315C136.794 84.4911 139.602 86.6559 139.602 86.6559L136.782 87.8486L131.814 83.4475L134.964 78.5574Z" fill="#263238"/>
<path d="M140.052 81.5988C140.268 81.9089 140.598 82.0342 140.802 81.8911C141.006 81.7479 140.976 81.3901 140.766 81.086C140.556 80.7818 140.214 80.6566 140.046 80.7997C139.947 80.9101 139.893 81.0528 139.894 81.2004C139.895 81.348 139.952 81.49 140.052 81.5988Z" fill="#263238"/>
<path d="M143.664 78.9988C143.88 79.3029 144.216 79.4281 144.414 79.291C144.612 79.1538 144.594 78.79 144.378 78.4859C144.162 78.1818 143.832 78.0506 143.634 78.1996C143.436 78.3487 143.46 78.7185 143.664 78.9988Z" fill="#263238"/>
<path d="M142.734 80.1437C143.707 80.6825 144.751 81.0839 145.836 81.3365C145.764 81.6127 145.632 81.87 145.45 82.0904C145.268 82.3108 145.039 82.4891 144.78 82.6126L142.734 80.1437Z" fill="#630F0F"/>
<path d="M138.246 79.9946C138.208 79.9925 138.172 79.9778 138.144 79.9529C138.119 79.9388 138.098 79.9199 138.081 79.8975C138.064 79.875 138.052 79.8493 138.045 79.822C138.039 79.7947 138.037 79.7664 138.042 79.7387C138.047 79.7109 138.057 79.6844 138.072 79.6607C138.254 79.3595 138.506 79.106 138.806 78.9213C139.107 78.7367 139.448 78.6262 139.8 78.5992C139.832 78.5939 139.864 78.5956 139.895 78.6042C139.926 78.6127 139.955 78.6278 139.98 78.6485C140.004 78.6692 140.024 78.695 140.038 78.7241C140.051 78.7532 140.058 78.7848 140.058 78.8169C140.058 78.8489 140.051 78.8805 140.038 78.9096C140.024 78.9387 140.004 78.9645 139.98 78.9852C139.955 79.0059 139.926 79.021 139.895 79.0296C139.864 79.0381 139.832 79.0398 139.8 79.0345C139.529 79.0686 139.269 79.1637 139.04 79.3125C138.811 79.4613 138.62 79.6599 138.48 79.8933C138.456 79.932 138.421 79.9626 138.379 79.9807C138.337 79.9989 138.291 80.0037 138.246 79.9946Z" fill="#263238"/>
<path d="M143.688 75.8023C143.682 75.8367 143.668 75.8692 143.647 75.8971C143.627 75.9251 143.599 75.9478 143.568 75.9633C143.317 76.0734 143.095 76.2419 142.923 76.4547C142.751 76.6674 142.633 76.9182 142.578 77.1858C142.572 77.2438 142.544 77.2973 142.499 77.335C142.454 77.3728 142.397 77.392 142.338 77.3886C142.281 77.3826 142.229 77.355 142.192 77.3117C142.155 77.2684 142.137 77.2127 142.14 77.156C142.199 76.8196 142.339 76.5024 142.548 76.2314C142.757 75.9603 143.029 75.7436 143.34 75.5996C143.365 75.5866 143.393 75.5789 143.422 75.577C143.45 75.5751 143.479 75.579 143.506 75.5885C143.533 75.598 143.558 75.6129 143.579 75.6322C143.6 75.6515 143.616 75.6749 143.628 75.7009C143.655 75.7301 143.675 75.7647 143.688 75.8023Z" fill="#263238"/>
<path d="M147.792 98.3981C147.792 98.3981 152.85 100.718 160.992 99.883C169.134 99.0481 173.466 96.5076 178.89 94.6411C180.288 94.158 183.414 93.0846 184.794 93.6153C185.94 94.0507 187.686 95.4044 187.602 96.5971C187.554 97.3425 185.934 98.1297 185.262 98.4637C184.416 98.8811 183.108 99.5133 182.172 99.3999C181.236 99.2866 179.826 98.088 179.826 98.088C179.826 98.088 168.282 104.827 161.544 105.894C154.806 106.962 145.8 104.535 145.8 104.535L147.792 98.3981Z" fill="#7F3E3B"/>
<path d="M149.358 97.8733L153.126 98.6664C153.126 98.6664 153.528 102.877 152.028 105.96L147.93 105.727L149.358 97.8733Z" fill="#1A7E5A"/>
<path opacity="0.5" d="M149.358 97.8733L153.126 98.6664C153.126 98.6664 153.528 102.877 152.028 105.96L147.93 105.727L149.358 97.8733Z" fill="white"/>
<path d="M151.23 99.3761C151.29 98.8425 151.183 98.3034 150.923 97.8327C150.663 97.3619 150.263 96.9825 149.778 96.7462C146.178 95.0943 137.886 91.8024 136.722 96.1856C135.324 101.463 137.322 106.431 148.32 106.324C148.939 106.304 149.529 106.058 149.977 105.633C150.425 105.209 150.7 104.635 150.75 104.022L151.23 99.3761Z" fill="#1A7E5A"/>
<path opacity="0.5" d="M151.23 99.3761C151.29 98.8425 151.183 98.3034 150.923 97.8327C150.663 97.3619 150.263 96.9825 149.778 96.7462C146.178 95.0943 137.886 91.8024 136.722 96.1856C135.324 101.463 137.322 106.431 148.32 106.324C148.939 106.304 149.529 106.058 149.977 105.633C150.425 105.209 150.7 104.635 150.75 104.022L151.23 99.3761Z" fill="white"/>
<path d="M130.626 75.8321C130.932 75.9156 131.016 76.5477 130.818 77.2455C130.62 77.9432 130.218 78.4382 129.918 78.3487C129.618 78.2593 129.528 77.6331 129.726 76.9354C129.924 76.2376 130.326 75.7367 130.626 75.8321Z" fill="#1A7E5A"/>
<path opacity="0.3" d="M130.626 75.8321C130.932 75.9156 131.016 76.5477 130.818 77.2455C130.62 77.9432 130.218 78.4382 129.918 78.3487C129.618 78.2593 129.528 77.6331 129.726 76.9354C129.924 76.2376 130.326 75.7367 130.626 75.8321Z" fill="black"/>
<path d="M142.092 72.6834C142.092 72.6834 144.108 70.7691 141.798 70.8108C139.488 70.8526 133.326 71.9379 131.16 75.2119C128.994 78.4859 129.894 84.7535 133.422 84.7893C133.422 84.7893 135.192 79.1896 137.862 76.5656C140.532 73.9417 142.092 72.6834 142.092 72.6834Z" fill="#1A7E5A"/>
<path opacity="0.3" d="M130.596 79.3745C130.427 80.4555 130.607 81.5621 131.112 82.5344C131.617 83.5067 132.419 84.2943 133.404 84.7834C133.404 84.7834 135.036 79.6309 137.52 76.8996C135.264 76.5597 131.01 76.3331 130.596 79.3745Z" fill="white"/>
<path d="M133.422 84.7893C133.422 84.7893 135.162 80.6149 137.19 78.1102C139.218 75.6055 141.144 74.8601 141.144 74.8601C141.144 74.8601 144.744 72.2659 144.012 71.5622C143.28 70.8585 137.232 75.3491 135.87 78.1818C134.897 80.3237 134.079 82.5318 133.422 84.7893Z" fill="#1A7E5A"/>
<path opacity="0.3" d="M133.422 84.7893C133.422 84.7893 135.162 80.6149 137.19 78.1102C139.218 75.6055 141.144 74.8601 141.144 74.8601C141.144 74.8601 144.744 72.2659 144.012 71.5622C143.28 70.8585 137.232 75.3491 135.87 78.1818C134.897 80.3237 134.079 82.5318 133.422 84.7893Z" fill="black"/>
<path d="M134.238 88.1468C134.652 88.4043 135.114 88.5774 135.596 88.6563C136.078 88.7351 136.571 88.718 137.046 88.606C138.324 88.3018 138.336 87.0078 137.454 86.143C136.662 85.3618 135.054 84.5746 134.016 85.3439C133.793 85.5139 133.616 85.7367 133.502 85.9919C133.387 86.2471 133.339 86.5268 133.361 86.8053C133.383 87.0838 133.475 87.3525 133.628 87.5868C133.781 87.8211 133.991 88.0136 134.238 88.1468Z" fill="#7F3E3B"/>
<path d="M145.2 84.6045C145.377 84.5232 145.546 84.4254 145.704 84.3122C145.721 84.2935 145.731 84.2691 145.731 84.2437C145.731 84.2183 145.721 84.1938 145.704 84.1751C145.683 84.157 145.657 84.1471 145.629 84.1471C145.601 84.1471 145.575 84.157 145.554 84.1751C145.188 84.4245 144.772 84.5902 144.334 84.6603C143.896 84.7304 143.448 84.7032 143.022 84.5806C143.009 84.5771 142.996 84.5761 142.983 84.5778C142.97 84.5795 142.958 84.5839 142.946 84.5906C142.935 84.5973 142.925 84.6062 142.918 84.6168C142.91 84.6274 142.905 84.6394 142.902 84.6522C142.898 84.6651 142.897 84.6786 142.899 84.6919C142.901 84.7052 142.905 84.7181 142.912 84.7297C142.918 84.7414 142.927 84.7516 142.938 84.7598C142.949 84.768 142.961 84.774 142.974 84.7774C143.711 85.0005 144.506 84.9387 145.2 84.6045Z" fill="#263238"/>
</svg>
